<svg width="20" height="20" viewBox="0 0 20 20" fill="none" xmlns="http://www.w3.org/2000/svg">
<path d="M5.55556 8.88889C4.94191 8.88889 4.44444 9.38635 4.44444 10C4.44444 10.6137 4.94191 11.1111 5.55556 11.1111H14.3994C15.0131 11.1111 15.5105 10.6137 15.5105 10C15.5105 9.38635 15.0131 8.88889 14.3994 8.88889H5.55556Z" fill="#8A8A8A"/>
<path d="M5.60059 13.4073C4.98694 13.4073 4.48947 13.9047 4.48947 14.5184C4.48947 15.132 4.98694 15.6295 5.60059 15.6295H14.4444C15.0581 15.6295 15.5556 15.132 15.5556 14.5184C15.5556 13.9047 15.0581 13.4073 14.4444 13.4073H5.60059Z" fill="#8A8A8A"/>
<path fill-rule="evenodd" clip-rule="evenodd" d="M2.22222 0C0.994923 0 0 0.994923 0 2.22222V17.7778C0 19.0051 0.994923 20 2.22222 20H17.7778C19.0051 20 20 19.0051 20 17.7778V2.22222C20 0.994923 19.0051 0 17.7778 0H2.22222ZM4.44444 2.22222H2.22222L2.22222 17.7778H17.7778V2.22222H15.5556V3.33333C15.5556 5.17428 14.0632 6.66667 12.2222 6.66667H7.77778C5.93683 6.66667 4.44444 5.17428 4.44444 3.33333V2.22222ZM6.66667 2.22222V3.33333C6.66667 3.94698 7.16413 4.44444 7.77778 4.44444H12.2222C12.8359 4.44444 13.3333 3.94698 13.3333 3.33333V2.22222H6.66667Z" fill="#8A8A8A"/>
</svg>
